<svg width="12" height="12" viewBox="0 0 12 12" fill="none" xmlns="http://www.w3.org/2000/svg">
<path fill-rule="evenodd" clip-rule="evenodd" d="M10.0224 2.4918C10.0695 2.52757 10.1091 2.57229 10.139 2.62339C10.1688 2.67449 10.1882 2.73097 10.1962 2.7896C10.2042 2.84823 10.2005 2.90785 10.1854 2.96506C10.1703 3.02227 10.1441 3.07594 10.1082 3.123L5.30819 9.423C5.26926 9.47403 5.21986 9.51614 5.1633 9.5465C5.10675 9.57687 5.04436 9.59478 4.98031 9.59904C4.91626 9.60331 4.85205 9.59382 4.79197 9.57121C4.73189 9.54861 4.67735 9.51342 4.63199 9.468L1.93199 6.768C1.85251 6.68269 1.80923 6.56986 1.81129 6.45328C1.81335 6.3367 1.86057 6.22547 1.94302 6.14302C2.02547 6.06057 2.1367 6.01335 2.25328 6.01129C2.36986 6.00923 2.48269 6.05251 2.56799 6.132L4.90439 8.4678L9.39239 2.5776C9.46462 2.48277 9.57153 2.42047 9.68965 2.40439C9.80776 2.3883 9.92743 2.41974 10.0224 2.4918Z" fill="white"/>
</svg>
